<?xml version="1.0" encoding="UTF-8"?>
<svg xmlns="http://www.w3.org/2000/svg" xmlns:xlink="http://www.w3.org/1999/xlink" width="255pt" height="94.61pt" viewBox="0 0 255 94.61" version="1.1">
<g id="surface1">
<path style=" stroke:none;fill-rule:nonzero;fill:rgb(0%,52.156067%,24.705505%);fill-opacity:1;" d="M 82.042969 33.640625 L 86.414063 33.640625 L 86.414063 68.847656 L 95.011719 68.847656 L 95.011719 25.664063 L 82.042969 25.664063 "/>
<path style=" stroke:none;fill-rule:nonzero;fill:rgb(0%,52.156067%,24.705505%);fill-opacity:1;" d="M 31.78125 33.640625 L 18.839844 33.640625 L 18.839844 25.664063 L 54.230469 25.664063 L 54.230469 33.640625 L 41.28125 33.640625 L 41.28125 68.839844 L 31.78125 68.839844 "/>
<path style=" stroke:none;fill-rule:nonzero;fill:rgb(0%,52.156067%,24.705505%);fill-opacity:1;" d="M 49.597656 47.183594 C 50.089844 39.144531 57.292969 36.730469 64.300781 36.730469 C 70.535156 36.730469 78.035156 38.117188 78.035156 45.609375 L 78.035156 61.882813 C 78.035156 64.734375 78.332031 67.574219 79.121094 68.839844 L 70.414063 68.839844 C 70.113281 67.875 69.871094 66.851563 69.8125 65.816406 C 67.089844 68.667969 63.089844 69.679688 59.28125 69.679688 C 53.351563 69.679688 48.640625 66.722656 48.640625 60.308594 C 48.640625 53.238281 53.960938 51.535156 59.28125 50.816406 C 64.550781 50.023438 69.445313 50.21875 69.445313 46.703125 C 69.445313 43.011719 66.90625 42.480469 63.882813 42.480469 C 60.617188 42.480469 58.492188 43.796875 58.191406 47.183594 Z M 69.445313 53.53125 C 67.996094 54.804688 64.964844 54.875 62.308594 55.351563 C 59.648438 55.898438 57.234375 56.804688 57.234375 59.953125 C 57.234375 63.160156 59.710938 63.941406 62.492188 63.941406 C 69.199219 63.941406 69.445313 58.621094 69.445313 56.75 L 69.445313 53.53125 "/>
<path style=" stroke:none;fill-rule:nonzero;fill:rgb(0%,52.156067%,24.705505%);fill-opacity:1;" d="M 109.535156 55.296875 C 109.78125 60.742188 112.445313 63.214844 117.226563 63.214844 C 120.671875 63.214844 123.445313 61.101563 123.996094 59.171875 L 131.558594 59.171875 C 129.132813 66.539063 123.996094 69.679688 116.914063 69.679688 C 107.0625 69.679688 100.945313 62.917969 100.945313 53.238281 C 100.945313 43.863281 107.421875 36.730469 116.914063 36.730469 C 127.558594 36.730469 132.707031 45.675781 132.097656 55.296875 Z M 123.511719 49.847656 C 122.726563 45.5 120.847656 43.191406 116.675781 43.191406 C 111.230469 43.191406 109.660156 47.433594 109.535156 49.847656 L 123.511719 49.847656 "/>
<path style=" stroke:none;fill-rule:nonzero;fill:rgb(0%,52.156067%,24.705505%);fill-opacity:1;" d="M 152.984375 36.730469 C 162.835938 36.730469 169.195313 43.25 169.195313 53.238281 C 169.195313 63.160156 162.835938 69.679688 152.984375 69.679688 C 143.183594 69.679688 136.84375 63.160156 136.84375 53.238281 C 136.84375 43.25 143.183594 36.730469 152.984375 36.730469 M 152.984375 63.214844 C 158.84375 63.214844 160.609375 58.195313 160.609375 53.238281 C 160.609375 48.21875 158.84375 43.191406 152.984375 43.191406 C 147.175781 43.191406 145.429688 48.21875 145.429688 53.238281 C 145.429688 58.195313 147.175781 63.214844 152.984375 63.214844 "/>
<path style=" stroke:none;fill-rule:nonzero;fill:rgb(55.293274%,77.645874%,24.705505%);fill-opacity:1;" d="M 228.277344 28.433594 L 213.09375 43.628906 L 219.378906 49.910156 L 234.570313 34.734375 Z M 228.277344 28.433594 "/>
<path style=" stroke:none;fill-rule:nonzero;fill:rgb(55.293274%,77.645874%,24.705505%);fill-opacity:1;" d="M 228.277344 76.171875 L 234.570313 69.878906 L 219.359375 54.664063 L 213.070313 60.960938 Z M 228.277344 76.171875 "/>
<path style=" stroke:none;fill-rule:nonzero;fill:rgb(55.293274%,77.645874%,24.705505%);fill-opacity:1;" d="M 215.167969 76.175781 C 215.167969 78.636719 213.164063 80.628906 210.699219 80.628906 C 208.238281 80.628906 206.238281 78.636719 206.238281 76.175781 C 206.238281 73.710938 208.238281 71.710938 210.699219 71.710938 C 213.164063 71.710938 215.167969 73.710938 215.167969 76.175781 "/>
<path style=" stroke:none;fill-rule:nonzero;fill:rgb(55.293274%,77.645874%,24.705505%);fill-opacity:1;" d="M 215.167969 28.433594 C 215.167969 30.910156 213.164063 32.902344 210.699219 32.902344 C 208.238281 32.902344 206.238281 30.910156 206.238281 28.433594 C 206.238281 25.984375 208.238281 23.984375 210.699219 23.984375 C 213.164063 23.984375 215.167969 25.984375 215.167969 28.433594 "/>
<path style=" stroke:none;fill-rule:nonzero;fill:rgb(55.293274%,77.645874%,24.705505%);fill-opacity:1;" d="M 234.558594 47.84375 C 237.03125 47.84375 239.035156 49.832031 239.035156 52.296875 C 239.035156 54.761719 237.03125 56.753906 234.558594 56.753906 C 232.101563 56.753906 230.101563 54.761719 230.101563 52.296875 C 230.101563 49.832031 232.101563 47.84375 234.558594 47.84375 "/>
<path style=" stroke:none;fill-rule:nonzero;fill:rgb(0%,52.156067%,24.705505%);fill-opacity:1;" d="M 186.847656 47.84375 C 189.304688 47.84375 191.300781 49.847656 191.300781 52.308594 C 191.300781 54.761719 189.304688 56.761719 186.847656 56.761719 C 184.390625 56.761719 182.378906 54.761719 182.378906 52.308594 C 182.378906 49.847656 184.390625 47.84375 186.847656 47.84375 "/>
<path style=" stroke:none;fill-rule:nonzero;fill:rgb(0%,52.156067%,24.705505%);fill-opacity:1;" d="M 186.839844 34.734375 L 204.414063 52.296875 L 186.839844 69.878906 L 193.128906 76.171875 L 216.992188 52.296875 L 193.128906 28.433594 "/>
<path style=" stroke:none;fill-rule:nonzero;fill:rgb(55.293274%,77.645874%,24.705505%);fill-opacity:1;" d="M 239.179688 71.984375 L 242.425781 71.984375 L 242.425781 72.460938 L 241.070313 72.460938 L 241.070313 75.972656 L 240.535156 75.972656 L 240.535156 72.460938 L 239.179688 72.460938 "/>
<path style=" stroke:none;fill-rule:nonzero;fill:rgb(55.293274%,77.645874%,24.705505%);fill-opacity:1;" d="M 246.644531 75.972656 L 246.644531 73.617188 C 246.644531 73.503906 246.660156 72.996094 246.660156 72.625 L 246.644531 72.625 L 245.523438 75.972656 L 244.992188 75.972656 L 243.867188 72.628906 L 243.859375 72.628906 C 243.859375 72.996094 243.867188 73.503906 243.867188 73.617188 L 243.867188 75.972656 L 243.347656 75.972656 L 243.347656 71.984375 L 244.121094 71.984375 L 245.253906 75.355469 L 245.265625 75.355469 L 246.402344 71.984375 L 247.164063 71.984375 L 247.164063 75.972656 "/>
</g>
</svg>
